<svg width="20" height="20" viewBox="0 0 20 20" fill="none" xmlns="http://www.w3.org/2000/svg">
<g id="Icons / Facebook">
<path id="Vector" fill-rule="evenodd" clip-rule="evenodd" d="M8.96447 2.29747C9.90215 1.35979 11.1739 0.833008 12.5 0.833008H15C15.4602 0.833008 15.8333 1.2061 15.8333 1.66634V4.99967C15.8333 5.45991 15.4602 5.83301 15 5.83301H12.5V7.49967H15C15.2566 7.49967 15.4989 7.6179 15.6568 7.82016C15.8148 8.02243 15.8707 8.28617 15.8085 8.53512L14.9751 11.8685C14.8824 12.2394 14.5491 12.4997 14.1667 12.4997H12.5V18.333C12.5 18.7932 12.1269 19.1663 11.6667 19.1663H8.33333C7.8731 19.1663 7.5 18.7932 7.5 18.333V12.4997H5.83333C5.3731 12.4997 5 12.1266 5 11.6663V8.33301C5 7.87277 5.3731 7.49967 5.83333 7.49967H7.5V5.83301C7.5 4.50692 8.02678 3.23516 8.96447 2.29747ZM12.5 2.49967C11.6159 2.49967 10.7681 2.85086 10.143 3.47599C9.51786 4.10111 9.16667 4.94895 9.16667 5.83301V8.33301C9.16667 8.79324 8.79357 9.16634 8.33333 9.16634H6.66667V10.833H8.33333C8.79357 10.833 9.16667 11.2061 9.16667 11.6663V17.4997H10.8333V11.6663C10.8333 11.2061 11.2064 10.833 11.6667 10.833H13.516L13.9327 9.16634H11.6667C11.2064 9.16634 10.8333 8.79324 10.8333 8.33301V5.83301C10.8333 5.39098 11.0089 4.96706 11.3215 4.6545C11.634 4.34194 12.058 4.16634 12.5 4.16634H14.1667V2.49967H12.5Z" fill="#BFC6D4"/>
</g>
</svg>
