<svg width="20" height="20" viewBox="0 0 20 20" fill="none" xmlns="http://www.w3.org/2000/svg">
<g id="Icons / Instragram" clip-path="url(#clip0_17_788)">
<g id="Vector">
<path fill-rule="evenodd" clip-rule="evenodd" d="M8.11694 6.26519C8.89486 5.86154 9.78024 5.71347 10.6472 5.84202C11.5315 5.97315 12.3501 6.38521 12.9823 7.01734C13.6144 7.64947 14.0265 8.46814 14.1576 9.35244C14.2861 10.2194 14.1381 11.1047 13.7344 11.8827C13.3308 12.6606 12.6921 13.2914 11.9093 13.6854C11.1264 14.0794 10.2393 14.2166 9.37403 14.0774C8.50875 13.9381 7.70942 13.5296 7.08971 12.9099C6.47 12.2902 6.06147 11.4908 5.92224 10.6256C5.783 9.7603 5.92015 8.87316 6.31417 8.09032C6.70819 7.30749 7.33903 6.66883 8.11694 6.26519ZM10.4027 7.49066C9.88254 7.41353 9.35131 7.50237 8.88456 7.74456C8.41781 7.98675 8.03931 8.36994 7.8029 8.83964C7.56648 9.30934 7.48419 9.84163 7.56774 10.3608C7.65128 10.88 7.89639 11.3596 8.26822 11.7314C8.64004 12.1032 9.11965 12.3483 9.63881 12.4319C10.158 12.5154 10.6903 12.4331 11.16 12.1967C11.6297 11.9603 12.0129 11.5818 12.255 11.115C12.4972 10.6483 12.5861 10.1171 12.5089 9.59691C12.4303 9.06633 12.183 8.57513 11.8038 8.19585C11.4245 7.81657 10.9333 7.56934 10.4027 7.49066Z" fill="#BFC6D4"/>
<path d="M14.5833 4.58301C14.123 4.58301 13.7499 4.9561 13.7499 5.41634C13.7499 5.87658 14.123 6.24967 14.5833 6.24967H14.5916C15.0518 6.24967 15.4249 5.87658 15.4249 5.41634C15.4249 4.9561 15.0518 4.58301 14.5916 4.58301H14.5833Z" fill="#BFC6D4"/>
<path fill-rule="evenodd" clip-rule="evenodd" d="M0.833252 5.83301C0.833252 3.07158 3.07183 0.833008 5.83325 0.833008H14.1666C16.928 0.833008 19.1666 3.07158 19.1666 5.83301V14.1663C19.1666 16.9278 16.928 19.1663 14.1666 19.1663H5.83325C3.07183 19.1663 0.833252 16.9278 0.833252 14.1663V5.83301ZM5.83325 2.49967C3.9923 2.49967 2.49992 3.99206 2.49992 5.83301V14.1663C2.49992 16.0073 3.9923 17.4997 5.83325 17.4997H14.1666C16.0075 17.4997 17.4999 16.0073 17.4999 14.1663V5.83301C17.4999 3.99206 16.0075 2.49967 14.1666 2.49967H5.83325Z" fill="#BFC6D4"/>
</g>
</g>
<defs>
<clipPath id="clip0_17_788">
<rect width="20" height="20" fill="white"/>
</clipPath>
</defs>
</svg>
