<svg width="20" height="20" viewBox="0 0 20 20" fill="none" xmlns="http://www.w3.org/2000/svg">
<g id="Icons / YouTube" clip-path="url(#clip0_17_786)">
<g id="Vector">
<path fill-rule="evenodd" clip-rule="evenodd" d="M8.53695 6.34228C8.27899 6.19558 7.96249 6.19712 7.70598 6.34634C7.44947 6.49555 7.29166 6.76991 7.29166 7.06666V12.5167C7.29166 12.8134 7.44947 13.0878 7.70598 13.237C7.96249 13.3862 8.27899 13.3877 8.53695 13.2411L13.3286 10.5161C13.5891 10.3679 13.75 10.0913 13.75 9.79166C13.75 9.492 13.5891 9.21541 13.3286 9.06728L8.53695 6.34228ZM11.2309 9.79166L8.95833 11.0841V8.49924L11.2309 9.79166Z" fill="#BFC6D4"/>
<path fill-rule="evenodd" clip-rule="evenodd" d="M10.0664 2.50009L9.99987 2.5L9.93341 2.5001C9.89042 2.50019 9.82744 2.50038 9.74692 2.50076C9.58591 2.50151 9.35467 2.50302 9.07284 2.50604C8.50953 2.51206 7.74251 2.52412 6.9294 2.54828C6.11763 2.57241 5.25324 2.60878 4.49718 2.66393C3.76443 2.71737 3.06273 2.79269 2.61802 2.91163L2.60646 2.91481C2.07305 3.06572 1.58892 3.35472 1.20295 3.75262C0.816984 4.15053 0.542858 4.64324 0.408259 5.18099C0.403751 5.19901 0.399845 5.21717 0.39655 5.23544C0.12546 6.7387 -0.00728629 8.26363 -2.44046e-05 9.79111C-0.00939977 11.3301 0.123357 12.8667 0.396556 14.3813C0.401438 14.4083 0.407657 14.4351 0.415189 14.4616C0.563578 14.9826 0.843846 15.4566 1.22891 15.8377C1.61398 16.2188 2.09083 16.4942 2.61339 16.6371L2.61802 16.6384C3.06273 16.7573 3.76443 16.8326 4.49718 16.8861C5.25324 16.9412 6.11763 16.9776 6.9294 17.0017C7.74251 17.0259 8.50953 17.0379 9.07284 17.044C9.35467 17.047 9.58591 17.0485 9.74692 17.0492C9.82744 17.0496 9.89042 17.0498 9.93341 17.0499L10.0004 17.05L10.0666 17.0499C10.1096 17.0498 10.1725 17.0496 10.2531 17.0492C10.4141 17.0485 10.6453 17.047 10.9271 17.044C11.4904 17.0379 12.2575 17.0259 13.0706 17.0017C13.8823 16.9776 14.7467 16.9412 15.5028 16.8861C16.2355 16.8326 16.9372 16.7573 17.382 16.6384L17.3935 16.6352C17.9269 16.4843 18.4111 16.1953 18.797 15.7974C19.183 15.3995 19.4571 14.9068 19.5917 14.369C19.5962 14.351 19.6001 14.3328 19.6034 14.3145C19.8725 12.8224 20.0052 11.3089 20 9.79278C20.0094 8.2536 19.8767 6.71684 19.6034 5.20207C19.6001 5.18381 19.5962 5.16566 19.5917 5.14766C19.4571 4.60991 19.183 4.11719 18.797 3.71929C18.4111 3.32139 17.9269 3.03238 17.3935 2.88147C17.3838 2.87874 17.3741 2.87617 17.3643 2.87379C16.9262 2.76681 16.2306 2.69832 15.4976 2.6495C14.743 2.59924 13.8797 2.56607 13.0684 2.54406C12.2559 2.52201 11.4894 2.51101 10.9264 2.50551C10.6447 2.50276 10.4136 2.50138 10.2527 2.50069C10.1723 2.50035 10.1093 2.50017 10.0664 2.50009ZM9.93709 4.16676L9.99998 4.16667L10.2456 4.16734C10.4038 4.16802 10.6318 4.16938 10.9101 4.1721C11.4668 4.17753 12.2232 4.1884 13.0232 4.21011C13.8244 4.23185 14.6633 4.2643 15.3868 4.31248C16.1188 4.36123 16.6708 4.42266 16.9541 4.48931C17.1996 4.56144 17.4224 4.6959 17.6007 4.87972C17.7767 5.06111 17.9032 5.28433 17.9687 5.52814C18.2202 6.9334 18.3423 8.35881 18.3333 9.78643L18.3333 9.79466C18.3384 11.2008 18.2163 12.6045 17.9686 13.9886C17.9032 14.2323 17.7766 14.4556 17.6007 14.6369C17.4203 14.8229 17.1944 14.9583 16.9455 15.0298C16.6716 15.102 16.1216 15.1698 15.3816 15.2238C14.6595 15.2765 13.8218 15.312 13.0211 15.3358C12.2217 15.3595 11.4658 15.3714 10.9093 15.3774C10.6312 15.3804 10.4034 15.3819 10.2452 15.3826C10.1662 15.383 10.1046 15.3831 10.0629 15.3832H9.93709C9.8954 15.3831 9.8338 15.383 9.75474 15.3826C9.59662 15.3819 9.36874 15.3804 9.09067 15.3774C8.5342 15.3714 7.7783 15.3595 6.97891 15.3358C6.17818 15.312 5.34049 15.2765 4.61842 15.2238C3.87515 15.1696 3.32371 15.1014 3.05094 15.0289C2.80577 14.9614 2.58206 14.832 2.4013 14.6531C2.22876 14.4823 2.10091 14.272 2.02872 14.0406C1.77891 12.6401 1.65776 11.2196 1.66669 9.7969L1.66664 9.78755C1.65964 8.37068 1.78171 6.95614 2.03133 5.56146C2.09674 5.31766 2.22333 5.09444 2.39927 4.91305C2.57964 4.72711 2.80553 4.59167 3.05445 4.52016C3.32842 4.448 3.87833 4.38016 4.61842 4.32618C5.34049 4.27351 6.17818 4.23801 6.97891 4.21422C7.7783 4.19046 8.5342 4.17856 9.09067 4.17261C9.36874 4.16963 9.59662 4.16815 9.75474 4.16741C9.8338 4.16704 9.8954 4.16685 9.93709 4.16676Z" fill="#BFC6D4"/>
</g>
</g>
<defs>
<clipPath id="clip0_17_786">
<rect width="20" height="20" fill="white"/>
</clipPath>
</defs>
</svg>
