<svg width="16" height="16" viewBox="0 0 16 16" fill="none" xmlns="http://www.w3.org/2000/svg">
<g id="Icons / Heart">
<path id="Vector" fill-rule="evenodd" clip-rule="evenodd" d="M9.64124 1.6622C10.1671 1.44431 10.7308 1.33215 11.3 1.33215C11.8692 1.33215 12.4329 1.44431 12.9588 1.6622C13.4846 1.88006 13.9623 2.19936 14.3646 2.60186C14.7671 3.00422 15.0866 3.48216 15.3045 4.00794C15.5224 4.53381 15.6346 5.09747 15.6346 5.6667C15.6346 6.23594 15.5224 6.79959 15.3045 7.32547C15.0866 7.8513 14.7673 8.32905 14.3647 8.73144C14.3647 8.73148 14.3648 8.7314 14.3647 8.73144L8.47141 14.6248C8.21106 14.8851 7.78895 14.8851 7.5286 14.6248L1.63527 8.73144C0.822451 7.91862 0.365814 6.8162 0.365814 5.6667C0.365814 4.5172 0.822451 3.41478 1.63527 2.60197C2.44809 1.78915 3.55051 1.33251 4.70001 1.33251C5.84951 1.33251 6.95193 1.78915 7.76475 2.60197L8.00001 2.83723L8.23516 2.60208C8.23512 2.60211 8.2352 2.60204 8.23516 2.60208C8.63755 2.19953 9.11541 1.88008 9.64124 1.6622ZM11.3 2.66549C10.9059 2.66549 10.5157 2.74313 10.1516 2.89398C9.78756 3.04483 9.45678 3.26594 9.17819 3.54466L8.47141 4.25144C8.21106 4.51179 7.78895 4.51179 7.5286 4.25144L6.82194 3.54478C6.25917 2.982 5.49589 2.66584 4.70001 2.66584C3.90413 2.66584 3.14085 2.982 2.57808 3.54478C2.01531 4.10755 1.69915 4.87083 1.69915 5.6667C1.69915 6.46258 2.01531 7.22586 2.57808 7.78863L8.00001 13.2106L13.4219 7.78863C13.7007 7.51004 13.9219 7.17915 14.0727 6.81508C14.2236 6.45101 14.3012 6.06079 14.3012 5.6667C14.3012 5.27262 14.2236 4.8824 14.0727 4.51833C13.9219 4.15426 13.7008 3.82348 13.422 3.54489C13.1435 3.26616 12.8125 3.04484 12.4484 2.89398C12.0843 2.74313 11.6941 2.66549 11.3 2.66549Z" fill="#E20346"/>
</g>
</svg>
