<svg width="25" height="24" viewBox="0 0 25 24" fill="none" xmlns="http://www.w3.org/2000/svg">
<g id="Icons / Mail">
<path id="Vector" fill-rule="evenodd" clip-rule="evenodd" d="M4.66666 3C3.01437 3 1.66666 4.34772 1.66666 6V18C1.66666 19.6523 3.01437 21 4.66666 21H20.6667C22.3189 21 23.6667 19.6523 23.6667 18V6C23.6667 4.34772 22.3189 3 20.6667 3H4.66666ZM3.77324 5.55394C3.93862 5.22692 4.2787 5 4.66666 5H20.6667C21.0546 5 21.3947 5.22693 21.5601 5.55395L12.6667 11.7793L3.77324 5.55394ZM3.66666 7.92064V18C3.66666 18.5477 4.11894 19 4.66666 19H20.6667C21.2144 19 21.6667 18.5477 21.6667 18V7.92066L13.2401 13.8192C12.8958 14.0603 12.4375 14.0603 12.0932 13.8192L3.66666 7.92064Z" fill="#032463"/>
</g>
</svg>
